<?xml version="1.0" standalone="no"?>
<!DOCTYPE svg PUBLIC "-//W3C//DTD SVG 20010904//EN"
 "http://www.w3.org/TR/2001/REC-SVG-20010904/DTD/svg10.dtd">
<svg version="1.0" xmlns="http://www.w3.org/2000/svg"
 width="1750.000000pt" height="675.000000pt" viewBox="0 0 1750.000000 675.000000"
 preserveAspectRatio="xMidYMid meet">
<metadata>
Created by potrace 1.10, written by Peter Selinger 2001-2011
</metadata>
<g transform="translate(0.000000,875.000000) scale(0.100000,-0.100000)"
fill="#0000ff" stroke="none">
<path d="M5807 6368 c-4 -12 -45 -27 -120 -44 -23 -5 -28 -11 -25 -33 3 -24 7
-26 61 -29 l57 -3 0 -328 c0 -305 -1 -329 -18 -344 -10 -10 -30 -17 -43 -17
-14 0 -35 -7 -47 -16 -18 -12 -26 -13 -37 -4 -8 7 -26 9 -43 5 -20 -4 -36 0
-55 15 l-27 21 0 191 c0 190 0 191 -26 225 -42 55 -89 73 -192 73 -130 0 -205
-38 -245 -123 -15 -34 -16 -40 -1 -62 18 -28 38 -37 62 -28 25 10 41 34 42 63
0 14 13 40 29 58 28 30 34 32 102 32 69 0 73 -1 105 -36 30 -31 34 -42 34 -89
l0 -53 -67 -5 c-155 -9 -297 -63 -333 -125 -37 -62 -19 -133 45 -184 26 -20
41 -23 121 -23 96 0 140 14 194 63 l25 23 36 -43 c36 -41 38 -42 108 -46 46
-3 76 0 86 8 8 6 23 9 35 5 26 -8 298 -10 306 -2 4 3 4 18 0 32 -5 21 -12 25
-40 25 -71 0 -66 -29 -66 399 0 212 0 392 0 399 0 7 -13 12 -29 12 -16 0 -31
-6 -34 -12z m-392 -652 l0 -68 -70 -39 c-59 -32 -80 -38 -131 -39 -46 0 -65 4
-76 18 -22 24 -31 58 -23 90 6 31 63 66 125 78 19 3 60 12 90 20 84 19 85 19
85 -60z"/>
<path d="M8890 6331 c-107 -39 -159 -86 -176 -158 -22 -100 19 -181 113 -226
21 -10 51 -25 66 -33 16 -8 41 -14 55 -14 15 0 36 -7 46 -15 11 -8 34 -15 52
-15 18 0 36 -4 39 -10 3 -5 23 -14 43 -19 20 -6 53 -24 72 -40 33 -27 35 -32
35 -91 0 -61 -1 -63 -42 -99 -103 -88 -264 -66 -370 52 -30 33 -73 114 -73
136 0 15 -47 14 -56 -1 -11 -18 -6 -70 11 -111 8 -20 15 -54 15 -75 0 -22 3
-53 6 -70 11 -52 57 -53 68 -1 6 32 35 40 56 14 7 -8 17 -15 23 -15 6 0 18 -6
26 -14 22 -20 140 -34 206 -25 101 14 181 69 225 154 24 48 27 137 5 155 -8 7
-15 17 -15 22 0 25 -53 74 -100 93 -8 4 -28 12 -45 19 -50 22 -98 38 -135 45
-19 4 -45 13 -57 19 -12 7 -33 12 -46 12 -14 0 -30 7 -37 15 -7 8 -18 15 -24
15 -7 0 -24 13 -39 28 -21 22 -27 38 -27 74 0 76 66 128 164 128 109 0 212
-77 269 -202 13 -30 22 -38 42 -38 35 0 41 24 21 79 -9 25 -16 57 -16 70 0 14
-4 38 -10 55 -5 17 -12 43 -15 59 -4 21 -11 27 -31 27 -17 0 -28 -7 -31 -20
-6 -22 -33 -26 -51 -8 -19 19 -124 48 -172 47 -25 -1 -65 -9 -90 -18z"/>
<path d="M1907 6332 c-21 -4 -30 -31 -16 -48 6 -8 26 -14 44 -14 69 0 65 23
65 -346 0 -319 -1 -334 -19 -344 -11 -5 -33 -10 -50 -10 -34 0 -61 -34 -43
-52 14 -14 281 -16 292 -2 5 5 7 20 3 32 -4 18 -12 22 -49 22 -68 0 -69 6 -69
349 0 226 3 295 13 298 6 3 12 -3 12 -12 0 -9 6 -31 14 -48 8 -18 16 -43 19
-57 5 -27 22 -76 42 -125 20 -50 37 -99 42 -125 3 -14 12 -34 19 -45 8 -11 14
-29 14 -40 0 -12 7 -30 15 -41 8 -10 15 -28 15 -40 0 -11 7 -29 15 -40 8 -10
15 -29 15 -40 0 -27 26 -90 40 -99 6 -4 21 -4 33 -1 23 5 47 53 47 92 0 11 7
29 15 40 8 10 15 28 15 39 0 11 6 29 14 40 7 11 16 31 19 45 3 14 15 50 27 80
12 30 25 69 30 85 11 39 29 91 46 133 8 18 14 43 14 55 0 13 4 27 9 33 5 5 13
25 18 44 5 19 13 34 19 33 12 -4 17 -613 5 -632 -5 -8 -31 -17 -58 -20 -43 -5
-48 -9 -51 -33 -2 -16 1 -28 7 -29 6 0 76 -1 156 -1 80 0 150 1 156 1 6 1 9
13 7 29 -3 24 -7 27 -45 30 -73 5 -73 3 -73 358 0 350 -2 340 75 346 35 3 40
6 40 28 l0 25 -130 0 -129 0 -7 -30 c-4 -16 -17 -55 -29 -85 -12 -30 -26 -71
-32 -90 -5 -19 -14 -39 -19 -45 -5 -5 -9 -18 -9 -28 0 -10 -6 -31 -14 -45 -16
-31 -35 -84 -45 -127 -4 -17 -13 -40 -19 -52 -7 -12 -12 -31 -12 -42 0 -28
-31 -91 -45 -91 -6 0 -16 21 -23 48 -25 97 -47 163 -68 205 -8 16 -14 37 -14
47 0 10 -6 31 -14 47 -29 60 -60 141 -76 198 -5 17 -14 44 -21 62 l-13 32
-112 3 c-61 2 -118 2 -127 0z"/>
<path d="M6050 6325 c-6 -8 -9 -23 -5 -35 5 -15 15 -20 44 -20 21 0 44 -6 50
-14 8 -9 11 -109 9 -347 l-3 -334 -46 -3 c-38 -2 -48 -7 -53 -25 -3 -12 -1
-26 4 -31 5 -5 119 -8 267 -7 196 2 265 6 291 17 19 8 41 14 49 14 17 0 97 60
122 92 38 48 79 146 90 213 9 55 8 87 -3 149 -8 43 -19 83 -25 89 -6 6 -11 17
-11 25 0 37 -145 182 -182 182 -8 0 -24 8 -38 17 -21 15 -58 17 -265 20 -132
2 -250 5 -261 8 -12 3 -27 -2 -34 -10z m513 -86 c61 -25 98 -58 145 -128 l37
-56 0 -135 c0 -121 -3 -140 -24 -183 -33 -68 -98 -127 -157 -144 -27 -8 -106
-17 -176 -20 l-128 -6 0 345 c0 190 2 347 4 349 2 2 60 3 128 1 96 -2 134 -7
171 -23z"/>
<path d="M6981 6326 c-7 -8 -10 -24 -6 -36 5 -15 15 -20 44 -20 20 0 42 -5 49
-12 9 -9 12 -97 12 -334 0 -177 -3 -329 -6 -338 -4 -11 -19 -16 -50 -16 -39 0
-44 -3 -50 -26 -4 -14 -3 -29 2 -32 5 -4 162 -5 349 -2 330 5 340 6 343 25 2
11 9 36 17 55 66 168 67 172 51 188 -23 23 -61 2 -69 -38 -4 -20 -26 -51 -60
-83 -71 -69 -115 -82 -282 -82 l-130 0 -5 155 c-3 85 -3 161 -1 168 3 10 23
12 90 7 105 -7 121 -19 121 -86 0 -39 4 -51 21 -59 41 -23 46 -3 47 185 0 187
-5 208 -47 186 -15 -9 -21 -23 -23 -63 -4 -71 -32 -91 -133 -96 -63 -4 -74 -2
-77 13 -1 10 -1 76 2 148 l5 130 153 -2 c133 -2 159 -5 193 -23 45 -23 84 -69
95 -111 8 -34 25 -43 53 -27 26 14 26 28 0 87 -12 27 -25 57 -29 68 -4 11 -12
32 -19 48 l-11 27 -304 0 c-167 0 -311 2 -319 5 -7 3 -19 -1 -26 -9z"/>
<path d="M7818 6329 c-5 -4 -8 -17 -6 -30 2 -18 12 -25 42 -31 43 -9 70 -33
109 -94 14 -22 31 -47 39 -55 7 -8 26 -33 42 -56 16 -24 39 -53 51 -65 12 -13
30 -36 40 -51 18 -28 18 -28 -11 -55 -16 -15 -65 -72 -108 -127 -116 -146
-165 -195 -196 -195 -14 0 -31 -5 -38 -12 -13 -13 -16 -48 -4 -49 4 0 63 -1
130 -2 132 -2 153 4 133 42 -7 12 -24 21 -43 23 -17 2 -33 8 -35 13 -1 6 13
27 32 48 20 22 69 83 111 138 41 54 80 99 87 99 7 0 18 -13 25 -29 7 -15 50
-79 97 -141 89 -118 95 -141 36 -132 -22 3 -32 -1 -41 -18 -8 -14 -8 -26 -2
-32 5 -5 79 -10 163 -11 l154 -1 0 29 c0 27 -3 30 -37 33 -42 4 -62 24 -197
207 -48 66 -98 131 -110 144 -25 28 -26 44 -7 64 17 16 73 82 131 153 88 107
110 126 151 133 33 5 39 10 42 33 l3 27 -128 3 c-138 3 -160 -3 -148 -41 5
-15 14 -21 28 -19 53 6 60 -26 17 -74 -17 -18 -56 -68 -87 -110 -32 -43 -60
-78 -65 -78 -4 0 -14 10 -23 23 -8 12 -47 66 -86 120 -60 82 -69 100 -58 113
8 10 21 13 40 9 22 -5 29 -2 34 15 4 12 3 26 -3 32 -11 11 -288 17 -304 7z"/>
<path d="M3902 6258 c-6 -6 -12 -29 -12 -50 0 -59 -51 -127 -96 -128 -22 0
-54 -29 -54 -47 0 -17 27 -23 75 -16 l45 6 0 -230 0 -229 30 -29 c25 -24 39
-28 102 -32 63 -4 79 -1 118 20 29 16 46 33 48 47 6 35 -10 42 -51 20 -48 -26
-118 -27 -140 -2 -15 16 -17 47 -17 226 l0 208 84 -7 c91 -8 103 -3 91 42 l-6
26 -86 -7 -85 -7 3 98 c4 92 3 98 -16 101 -11 1 -26 -3 -33 -10z"/>
<path d="M2923 6074 c-13 -34 2 -49 52 -52 27 -2 55 -8 62 -14 10 -8 13 -58
13 -199 0 -183 1 -191 24 -227 41 -65 68 -77 171 -77 86 0 92 2 146 37 31 20
60 41 63 47 4 6 17 11 28 11 19 0 20 -4 15 -45 -4 -28 -2 -47 5 -51 17 -11
177 -13 184 -2 3 5 3 20 0 34 -5 18 -13 24 -35 24 -64 0 -61 -12 -61 265 l0
253 -102 4 c-103 5 -138 -2 -138 -25 0 -25 24 -37 72 -37 37 0 50 -4 58 -19 5
-11 10 -87 10 -173 l0 -154 -27 -20 c-46 -34 -146 -77 -189 -82 -49 -5 -84 14
-115 64 -19 31 -20 46 -18 234 1 110 0 203 -3 205 -3 3 -51 7 -107 8 -77 3
-104 1 -108 -9z"/>
<path d="M4178 6082 c-19 -4 -22 -19 -12 -46 4 -12 20 -16 55 -16 38 0 51 -4
59 -20 7 -13 10 -83 9 -188 -1 -186 5 -214 62 -270 59 -58 186 -57 289 4 33
19 60 40 60 45 0 6 8 9 18 7 13 -3 17 -14 17 -51 l0 -49 88 -2 c92 -3 125 8
114 37 -3 9 -19 19 -34 22 -15 3 -39 9 -53 13 l-25 8 0 252 0 252 -82 2 c-46
1 -95 2 -110 2 -25 1 -28 -3 -28 -29 0 -29 2 -30 50 -33 27 -2 55 -8 62 -14
10 -8 13 -53 13 -171 l0 -161 -27 -23 c-14 -13 -31 -23 -38 -23 -6 0 -16 -5
-22 -11 -16 -16 -112 -49 -143 -49 -14 0 -42 11 -61 25 -48 32 -51 52 -48 289
2 158 0 191 -12 193 -33 4 -186 8 -201 5z"/>
<path d="M9396 6064 c-24 -23 -20 -33 19 -50 36 -15 85 -79 85 -111 0 -10 7
-27 15 -37 8 -11 15 -28 15 -37 0 -10 6 -30 14 -46 7 -15 20 -44 28 -63 8 -19
23 -52 32 -73 9 -21 16 -43 16 -50 0 -7 9 -33 21 -56 19 -40 23 -43 51 -37 17
3 34 6 39 6 5 0 9 12 9 26 0 14 6 38 13 52 32 62 63 144 77 200 5 19 11 36 14
39 12 12 46 -31 46 -57 0 -14 7 -35 15 -46 8 -10 15 -28 15 -39 0 -11 7 -29
15 -39 8 -11 15 -30 15 -42 0 -13 4 -25 9 -29 5 -3 12 -19 16 -35 8 -38 17
-42 60 -34 25 4 35 12 35 24 0 10 6 31 14 47 8 15 24 53 36 83 12 30 25 64 29
75 9 21 31 77 57 148 31 82 49 110 82 125 26 13 32 21 30 42 l-3 25 -110 0
c-108 0 -110 0 -113 -24 -4 -27 12 -41 46 -41 41 0 39 -29 -8 -150 -31 -80
-60 -172 -60 -192 0 -49 -46 -24 -60 33 -11 46 -30 98 -46 131 -8 14 -14 35
-14 45 0 10 -5 24 -10 29 -16 16 -28 67 -20 89 5 13 17 20 39 21 43 2 56 16
41 43 -10 21 -17 21 -138 19 l-127 -3 -3 -25 c-2 -19 4 -29 30 -43 55 -29 85
-100 54 -126 -8 -6 -16 -22 -19 -34 -3 -12 -15 -47 -27 -77 -12 -30 -25 -70
-30 -88 -5 -19 -11 -36 -15 -40 -12 -13 -40 16 -46 49 -8 40 -26 94 -45 131
-8 14 -14 35 -14 45 0 10 -6 27 -14 38 -35 51 -27 123 13 110 10 -3 25 1 35 8
15 11 17 17 7 35 -11 21 -19 22 -131 22 -94 0 -122 -3 -134 -16z"/>
<path d="M10505 6054 c-70 -34 -104 -78 -105 -132 0 -36 4 -44 24 -52 38 -14
60 -2 79 43 9 23 17 47 17 54 0 6 12 21 26 32 21 17 41 21 95 21 91 0 117 -21
128 -105 5 -33 7 -63 4 -67 -2 -5 -30 -8 -62 -8 -32 0 -78 -7 -101 -15 -23 -8
-53 -15 -65 -15 -12 0 -43 -9 -67 -20 -121 -53 -154 -169 -69 -246 68 -63 202
-60 303 6 59 38 78 42 78 17 2 -45 96 -82 175 -68 30 5 41 11 43 26 4 37 -12
49 -48 37 -30 -11 -57 -5 -80 15 -3 3 -7 94 -10 203 -6 225 -9 234 -90 277
-36 19 -58 23 -134 22 -76 0 -99 -4 -141 -25z m261 -276 c11 -18 4 -121 -9
-135 -7 -6 -39 -25 -72 -42 -46 -24 -72 -31 -116 -31 -52 0 -60 3 -83 31 -14
17 -26 41 -26 53 0 28 55 85 89 91 14 3 46 10 71 16 121 31 137 32 146 17z"/>
<path d="M11152 6068 c-6 -7 -32 -19 -59 -26 -26 -8 -54 -15 -60 -18 -7 -2
-13 -9 -13 -17 0 -7 6 -21 13 -30 9 -14 18 -15 43 -8 22 6 36 5 43 -2 12 -12
16 -592 5 -634 -5 -18 -14 -23 -52 -25 -50 -3 -63 -20 -40 -50 11 -14 23 -15
82 -6 45 6 91 6 135 -1 58 -9 67 -9 79 6 23 31 10 48 -38 51 -25 2 -48 9 -52
15 -4 7 -8 46 -8 87 0 41 -4 91 -10 110 -15 54 2 60 57 19 46 -33 51 -34 138
-34 77 0 95 3 128 23 99 62 154 212 127 344 -28 135 -110 208 -230 208 -65 0
-112 -18 -164 -64 -16 -14 -36 -26 -44 -26 -14 0 -14 6 0 71 4 19 -64 25 -80
7z m333 -87 c17 -9 42 -39 57 -67 22 -40 27 -62 27 -120 1 -92 -25 -153 -81
-194 -35 -26 -50 -30 -102 -30 -62 0 -83 9 -131 53 -18 16 -21 35 -26 155 -5
130 -4 138 15 155 49 41 154 79 191 70 11 -3 34 -13 50 -22z"/>
<path d="M1563 4943 c-18 -7 -16 -30 2 -37 23 -9 22 -221 -2 -234 -10 -6 -14
-16 -10 -26 7 -18 72 -22 97 -6 13 9 12 13 -6 28 -17 15 -22 33 -27 110 -3 51
-3 92 0 92 13 0 55 -70 100 -165 26 -56 30 -60 52 -63 21 -3 21 -1 21 128 0
107 3 132 15 136 25 10 17 32 -15 39 -58 13 -92 -16 -50 -43 17 -10 20 -23 20
-76 0 -36 -4 -67 -8 -70 -5 -3 -26 30 -48 72 -21 42 -47 87 -58 100 -18 21
-54 27 -83 15z"/>
<path d="M1850 4936 c-6 -6 -4 -16 6 -27 24 -26 24 -217 0 -234 -13 -10 -22
-33 -13 -36 1 0 48 -3 104 -5 l103 -5 20 33 c11 18 20 43 20 56 0 27 -26 30
-35 3 -8 -27 -64 -53 -105 -49 -32 3 -35 6 -38 37 -5 50 5 81 27 81 12 0 23
-11 30 -30 5 -16 14 -30 20 -30 16 0 25 85 11 110 l-11 21 -25 -26 c-21 -22
-27 -25 -40 -14 -10 8 -14 25 -12 48 3 35 4 36 48 39 39 3 49 -1 75 -28 27
-28 55 -40 55 -22 0 5 -9 27 -20 51 l-21 42 -95 -3 c-52 -2 -99 -7 -104 -12z"/>
<path d="M2112 4937 c-10 -12 -8 -17 11 -29 12 -9 31 -32 42 -52 11 -20 23
-36 27 -36 5 0 8 -11 8 -23 0 -15 -21 -46 -55 -82 -30 -33 -55 -62 -55 -66 0
-10 27 -19 55 -19 28 0 41 16 37 47 -2 12 7 36 19 52 18 24 25 28 36 19 24
-20 42 -63 33 -78 -5 -9 -5 -19 2 -27 14 -18 83 -16 97 1 10 12 7 18 -14 32
-26 17 -95 112 -95 132 0 6 23 34 50 63 28 29 50 56 50 60 0 13 -46 22 -70 14
-16 -5 -20 -13 -17 -27 8 -30 -10 -68 -32 -68 -27 0 -51 40 -37 62 13 22 9 26
-40 33 -29 5 -43 3 -52 -8z"/>
<path d="M2379 4906 c-10 -22 -19 -43 -19 -48 0 -18 28 -6 53 22 28 31 57 40
58 18 0 -7 0 -58 -1 -113 -1 -75 -4 -103 -15 -111 -33 -25 -10 -44 51 -44 39
0 56 24 31 43 -24 18 -28 231 -5 235 9 2 26 -11 38 -27 12 -17 30 -31 41 -31
22 0 24 11 7 43 -6 12 -14 29 -18 37 -6 12 -28 15 -105 15 l-97 0 -19 -39z"/>
<path d="M2814 4928 c-34 -24 -74 -99 -74 -136 0 -34 34 -103 65 -132 24 -23
34 -25 102 -23 87 2 93 7 93 76 0 26 5 47 10 47 6 0 10 7 10 15 0 11 -12 15
-50 15 -36 0 -50 -4 -50 -14 0 -8 7 -16 15 -20 21 -8 19 -50 -5 -71 -16 -14
-26 -16 -51 -9 -49 14 -74 55 -74 121 0 49 3 58 33 84 24 22 39 28 54 23 22
-7 68 -51 68 -65 0 -5 7 -9 15 -9 11 0 15 11 15 38 0 49 -7 58 -55 71 -59 16
-87 14 -121 -11z"/>
<path d="M3061 4942 c-16 -5 -13 -29 4 -36 12 -4 15 -27 15 -116 0 -89 -3
-112 -15 -116 -15 -6 -21 -33 -7 -35 33 -6 163 -8 189 -4 25 5 34 13 43 41 9
27 9 38 0 49 -10 12 -17 9 -45 -20 -23 -25 -41 -35 -63 -35 -54 0 -62 8 -62
61 0 61 22 77 52 36 32 -44 46 -35 46 28 0 30 -3 55 -5 55 -3 0 -17 -7 -33
-16 -39 -23 -60 -13 -60 30 0 38 12 46 66 46 33 0 74 -28 74 -50 0 -5 7 -10
15 -10 22 0 19 52 -5 78 -18 20 -30 22 -109 20 -49 -1 -94 -4 -100 -6z"/>
<path d="M3324 4935 c-5 -11 -1 -21 9 -27 25 -13 25 -223 0 -236 -10 -6 -14
-16 -10 -26 7 -18 63 -22 87 -6 13 9 12 13 -7 29 -21 17 -23 28 -23 105 0 80
13 119 26 79 7 -20 34 -75 70 -143 13 -25 24 -51 24 -57 0 -7 11 -13 25 -13
l25 0 0 127 c0 105 3 130 17 145 15 17 15 20 3 28 -17 11 -51 13 -74 4 -19 -7
-21 -31 -4 -36 7 -3 15 -31 18 -64 4 -32 10 -67 15 -77 7 -17 6 -18 -14 -5
-12 7 -41 50 -63 96 -26 51 -47 82 -57 82 -9 0 -26 3 -38 6 -16 4 -25 1 -29
-11z"/>
<path d="M3620 4936 c-6 -6 -4 -17 7 -28 24 -27 23 -211 -2 -238 -10 -11 -15
-23 -12 -26 8 -9 176 -16 203 -10 23 6 44 44 44 81 0 29 -26 34 -34 7 -8 -26
-58 -52 -99 -52 -44 0 -46 3 -38 103 2 29 38 20 50 -13 5 -16 14 -30 20 -30
16 0 24 85 11 110 l-12 23 -23 -29 c-19 -24 -25 -27 -39 -15 -10 9 -14 24 -11
45 2 17 4 34 4 39 1 4 21 7 46 7 37 0 50 -5 73 -30 49 -51 70 -28 33 35 l-18
30 -97 0 c-53 0 -101 -4 -106 -9z"/>
<path d="M3890 4936 c-6 -6 -4 -16 6 -27 22 -25 22 -213 0 -238 -21 -23 -3
-41 40 -41 44 0 60 21 34 45 -22 20 -27 79 -10 105 11 17 10 19 62 -61 54 -83
63 -89 118 -89 27 0 55 3 64 6 17 6 22 34 7 34 -19 0 -19 29 0 51 10 12 19 26
19 31 0 4 14 8 31 8 25 0 32 -6 45 -35 12 -28 12 -39 2 -55 -16 -26 1 -40 50
-40 33 0 56 25 35 39 -17 11 -41 65 -75 171 -38 119 -57 136 -83 74 -8 -20
-15 -47 -15 -59 0 -12 -7 -28 -15 -35 -8 -7 -15 -27 -15 -45 0 -18 -7 -38 -15
-45 -8 -7 -15 -21 -15 -32 0 -40 -32 -33 -77 18 -46 52 -49 65 -15 74 22 5 62
54 62 77 0 6 -15 28 -33 47 l-34 36 -82 -3 c-45 -1 -86 -6 -91 -11z m165 -42
c9 -9 15 -28 13 -43 -2 -21 -10 -28 -41 -35 -26 -7 -44 -6 -55 1 -16 10 -24
55 -15 81 7 18 79 15 98 -4z m219 -50 c17 -45 0 -72 -35 -54 -19 11 -19 13 -5
29 9 10 16 23 16 29 0 17 17 15 24 -4z"/>
<path d="M4409 4939 c-19 -11 -17 -83 2 -87 11 -2 19 6 23 21 6 25 31 42 47
31 5 -3 9 -54 9 -114 0 -91 -3 -111 -17 -118 -27 -16 -8 -42 31 -42 63 0 84
20 49 45 -14 10 -17 33 -20 118 -3 92 -1 106 15 112 12 4 25 -3 44 -24 15 -17
32 -31 38 -31 15 0 11 31 -8 64 -17 28 -19 29 -109 31 -51 1 -98 -2 -104 -6z"/>
<path d="M4661 4939 c-22 -9 -23 -11 -7 -27 23 -26 24 -230 1 -238 -24 -9 -18
-33 10 -40 29 -7 95 3 95 15 0 4 -9 16 -20 26 -17 16 -20 31 -20 115 0 85 2
99 21 116 19 17 19 19 3 31 -21 15 -49 16 -83 2z"/>
<path d="M4849 4926 c-43 -30 -69 -80 -69 -134 0 -53 13 -84 50 -123 23 -25
41 -33 78 -37 45 -4 50 -2 89 37 71 72 71 175 0 242 -49 48 -94 52 -148 15z
m123 -48 c18 -18 23 -34 23 -83 0 -79 -24 -114 -77 -115 -79 0 -117 114 -62
187 31 41 81 46 116 11z"/>
<path d="M5093 4943 c-19 -7 -16 -26 6 -40 16 -10 18 -22 13 -115 -4 -76 -9
-106 -20 -114 -24 -17 -7 -44 27 -44 39 0 61 9 61 25 0 7 -7 15 -15 19 -12 4
-15 24 -15 91 0 47 4 85 10 85 5 0 18 -21 29 -47 12 -27 25 -55 31 -63 5 -8
17 -30 25 -49 21 -46 34 -61 49 -55 10 4 14 37 14 130 0 108 3 127 18 138 29
22 10 46 -36 46 -45 0 -67 -25 -37 -42 13 -7 17 -24 17 -72 0 -34 -3 -66 -7
-70 -4 -3 -26 33 -50 81 -46 95 -72 116 -120 96z"/>
<path d="M5588 4939 c-12 -7 -18 -22 -18 -49 0 -29 -4 -40 -15 -40 -10 0 -15
-10 -15 -27 -1 -16 -9 -46 -20 -68 -11 -22 -19 -46 -20 -54 0 -8 -7 -19 -17
-26 -39 -29 24 -62 67 -35 12 7 12 13 1 33 -17 31 -8 60 25 77 30 16 51 7 74
-33 13 -23 13 -28 -4 -46 -11 -12 -17 -24 -13 -27 3 -3 49 -7 102 -9 79 -2 98
0 102 12 4 9 -1 20 -10 25 -14 7 -17 25 -17 86 0 79 11 119 24 87 3 -9 6 -25
6 -35 0 -10 7 -31 15 -46 8 -16 15 -37 15 -47 0 -28 29 -77 45 -77 11 0 15 11
15 39 0 22 6 44 15 51 19 16 21 94 3 88 -7 -3 -14 -23 -16 -46 -3 -43 -18 -56
-28 -24 -3 9 -10 26 -14 37 -5 11 -16 47 -26 80 -19 67 -35 85 -76 85 -34 0
-50 -28 -25 -42 14 -7 17 -27 17 -118 0 -101 -2 -110 -21 -121 -37 -19 -54 11
-104 186 -26 93 -34 103 -67 84z m16 -95 c24 -9 21 -64 -3 -64 -20 0 -31 18
-31 51 0 20 8 23 34 13z"/>
<path d="M5994 4943 c-33 -24 -46 -106 -19 -117 22 -8 21 -133 -2 -158 -22
-24 -10 -33 42 -33 53 0 64 9 40 35 -15 16 -19 39 -21 118 -2 86 1 100 19 119
11 13 18 25 15 28 -9 10 -63 15 -74 8z"/>
<path d="M6107 4939 c-17 -10 -16 -12 8 -35 25 -23 25 -25 19 -121 -6 -82 -11
-100 -28 -114 l-21 -17 27 -12 c14 -7 38 -10 52 -6 26 6 35 29 16 41 -13 8
-13 132 0 140 5 3 12 -7 15 -22 3 -15 12 -48 20 -73 8 -25 15 -53 15 -62 0
-30 25 -20 43 17 9 20 17 49 17 64 0 16 7 31 15 35 9 3 15 19 15 41 0 38 14
48 23 16 9 -36 -5 -152 -19 -158 -19 -7 -18 -29 2 -37 26 -10 69 -7 82 6 9 9
8 16 -3 29 -11 11 -17 47 -21 118 -5 96 -3 103 17 119 19 16 20 19 5 31 -10 9
-28 11 -51 7 -27 -5 -35 -12 -35 -29 0 -12 -7 -35 -15 -51 -8 -15 -15 -42 -15
-60 0 -37 -36 -68 -51 -44 -5 7 -9 23 -9 34 0 12 -7 35 -15 50 -8 16 -15 39
-15 51 0 23 -34 53 -60 53 -8 0 -23 -5 -33 -11z"/>
<path d="M6578 4943 c-22 -5 -22 -12 -1 -35 23 -26 22 -217 -2 -234 -34 -25
-10 -44 56 -44 44 0 65 25 36 42 -11 6 -17 22 -17 48 0 39 1 40 35 40 43 0 81
23 101 61 20 39 18 50 -14 89 -28 32 -31 34 -103 35 -41 1 -82 0 -91 -2z m153
-57 c16 -35 3 -75 -28 -87 -42 -16 -53 -5 -53 49 0 57 4 62 42 62 20 0 32 -7
39 -24z"/>
<path d="M6828 4942 c-22 -4 -23 -28 -2 -36 24 -9 17 -214 -8 -230 -22 -13
-23 -32 -2 -40 23 -9 77 -7 94 4 12 8 12 11 -3 28 -18 20 -25 122 -8 122 5 0
27 -28 48 -62 50 -84 63 -98 91 -98 28 0 41 29 18 42 -9 5 -21 15 -26 21 -6 7
-24 27 -40 46 -31 36 -31 51 0 51 24 0 60 46 60 76 0 12 -11 36 -24 51 -23 26
-29 28 -103 28 -43 0 -86 -1 -95 -3z m154 -49 c10 -9 18 -24 18 -34 0 -25 -43
-51 -77 -47 -24 3 -28 8 -31 36 -2 19 -1 40 2 48 7 19 65 18 88 -3z"/>
<path d="M7153 4929 c-36 -23 -73 -91 -73 -135 0 -92 63 -164 142 -164 30 0
46 8 79 40 38 36 43 46 47 95 6 74 -2 98 -48 145 -32 33 -46 40 -77 40 -21 0
-52 -10 -70 -21z m126 -65 c46 -78 9 -184 -65 -184 -50 0 -77 31 -82 97 -4 44
0 59 19 88 21 30 29 35 66 35 37 0 43 -4 62 -36z"/>
<path d="M7387 4942 c-12 -3 -17 -14 -17 -42 0 -47 16 -60 31 -26 12 26 35 40
50 30 5 -3 9 -54 9 -114 0 -91 -3 -111 -17 -118 -27 -16 -8 -42 31 -42 63 0
86 23 47 47 -16 10 -18 26 -20 116 -1 92 1 106 16 111 13 5 26 -2 45 -23 45
-51 62 -36 34 30 l-14 33 -89 1 c-49 0 -97 -1 -106 -3z"/>
<path d="M7693 4929 c-20 -13 -42 -42 -59 -76 -24 -52 -25 -59 -13 -102 8 -30
27 -59 53 -83 33 -32 46 -38 83 -38 38 0 49 5 83 40 68 70 68 177 -1 242 -47
45 -94 50 -146 17z m126 -65 c47 -79 9 -184 -67 -184 -47 1 -73 34 -80 102 -4
39 0 55 19 83 21 30 29 35 66 35 37 0 43 -4 62 -36z"/>
<path d="M7996 4931 c-53 -36 -69 -73 -64 -151 3 -66 6 -73 41 -108 33 -32 43
-37 85 -37 40 0 53 5 85 34 34 32 48 61 28 61 -4 0 -29 -11 -55 -25 -59 -31
-64 -31 -106 4 -32 27 -35 33 -34 84 0 41 5 62 20 78 40 45 92 46 115 2 13
-24 47 -49 55 -40 6 6 -6 81 -15 95 -3 6 -33 13 -66 17 -50 5 -65 3 -89 -14z"/>
<path d="M8278 4932 c-55 -36 -73 -71 -73 -142 0 -53 4 -71 23 -95 56 -70 124
-85 181 -38 90 75 92 186 6 262 -42 36 -94 41 -137 13z m118 -53 c28 -31 27
-146 -2 -175 -44 -44 -90 -37 -124 18 -32 52 -25 111 18 161 22 25 84 23 108
-4z"/>
<path d="M8523 4944 c-18 -8 -16 -31 2 -38 12 -4 15 -27 15 -116 0 -89 -3
-112 -15 -116 -21 -8 -19 -32 3 -37 27 -7 134 -8 163 -2 21 5 29 15 37 47 6
23 9 45 6 50 -11 17 -34 7 -48 -21 -15 -29 -52 -46 -79 -35 -22 8 -15 209 9
235 9 11 14 22 11 25 -8 9 -89 15 -104 8z"/>
<path d="M8862 4932 c-3 -8 2 -20 11 -27 14 -10 17 -31 17 -115 0 -84 -3 -105
-17 -115 -10 -8 -14 -19 -10 -30 6 -15 19 -16 102 -13 87 3 97 5 122 30 34 35
37 87 6 120 -22 23 -22 23 -3 48 27 34 25 43 -13 84 l-34 35 -87 -1 c-68 -1
-89 -5 -94 -16z m177 -36 c7 -8 11 -27 9 -43 -3 -27 -5 -28 -58 -28 -53 0 -55
1 -58 28 -2 16 -1 35 2 43 7 19 90 19 105 0z m0 -132 c38 -31 38 -40 5 -71
-21 -19 -35 -23 -68 -21 -46 3 -54 19 -41 84 5 31 9 34 40 34 21 0 44 -9 64
-26z"/>
<path d="M9136 4937 c-19 -14 -19 -14 0 -28 10 -8 34 -42 52 -77 37 -72 42
-134 15 -164 -15 -17 -15 -20 -3 -28 8 -6 32 -10 53 -10 43 0 62 25 34 45 -23
16 -22 84 1 124 9 17 20 31 25 31 4 0 7 7 7 16 0 8 14 29 30 46 34 34 37 43
14 52 -46 17 -91 -3 -74 -34 10 -19 -16 -81 -37 -87 -6 -3 -19 12 -29 33 -14
30 -15 40 -5 56 15 24 15 25 -29 33 -23 4 -41 1 -54 -8z"/>
<path d="M9513 4943 c-18 -7 -16 -24 3 -38 24 -17 21 -214 -3 -232 -26 -20 -8
-43 35 -43 49 0 72 22 44 42 -14 10 -20 31 -25 89 -4 42 -4 79 -1 82 9 9 49
-76 69 -145 9 -32 22 -58 29 -58 14 0 46 87 46 125 0 32 -23 29 -28 -4 -4 -29
-26 -22 -30 10 -2 13 -10 38 -18 56 -8 17 -14 39 -14 48 0 20 -19 57 -34 67
-12 9 -54 9 -73 1z"/>
<path d="M9744 4938 c-16 -24 -34 -83 -34 -111 0 -36 30 -34 42 3 4 14 5 -13
2 -60 -3 -59 -10 -90 -22 -103 -14 -16 -14 -19 -2 -27 17 -11 61 -13 84 -4 20
8 21 30 1 38 -23 8 -22 212 2 238 20 22 18 24 -28 33 -26 5 -39 3 -45 -7z"/>
<path d="M9863 4934 c-3 -8 -1 -20 6 -27 7 -7 11 -48 11 -105 l0 -94 39 -39
c54 -54 90 -53 143 1 l38 41 0 93 c0 73 3 96 16 107 14 12 14 14 -2 26 -10 7
-31 13 -46 13 -34 0 -49 -27 -25 -45 13 -10 17 -29 17 -92 0 -74 -2 -81 -28
-106 -33 -32 -49 -33 -79 -8 -21 17 -23 28 -23 109 0 68 4 93 15 102 12 10 13
16 4 26 -16 20 -78 18 -86 -2z"/>
<path d="M10159 4936 c-5 -6 -9 -18 -9 -27 0 -10 -4 -21 -10 -24 -13 -8 -13
-35 1 -35 5 0 23 14 39 31 49 54 60 37 60 -90 0 -101 -2 -110 -20 -116 -24 -8
-26 -30 -4 -39 23 -9 77 -7 94 4 12 8 12 12 -5 32 -17 20 -20 38 -20 128 0 98
1 105 20 105 11 0 25 -11 32 -25 20 -40 39 -32 35 15 -2 22 -6 42 -7 44 -9 8
-197 5 -206 -3z"/>
<path d="M10403 4934 c-3 -8 -1 -20 6 -27 7 -7 11 -49 11 -108 l0 -97 40 -36
c56 -50 91 -49 142 4 l38 41 0 94 c0 77 3 96 17 103 30 17 8 42 -37 42 -46 0
-65 -24 -37 -45 13 -10 17 -29 17 -88 0 -67 -3 -79 -26 -106 -30 -35 -50 -38
-81 -12 -21 17 -23 28 -23 109 0 68 4 93 15 102 12 10 13 16 4 26 -16 20 -78
18 -86 -2z"/>
<path d="M10776 4928 c-9 -12 -16 -37 -16 -54 0 -19 -6 -34 -15 -38 -8 -3 -15
-14 -15 -24 0 -28 -35 -120 -53 -140 -13 -14 -14 -21 -5 -30 14 -14 57 -15 78
-2 12 8 12 11 -3 28 -24 26 -22 37 13 72 25 26 33 29 50 20 30 -16 44 -59 29
-87 -16 -29 -8 -37 39 -35 20 1 51 1 67 0 141 -3 185 -2 194 7 6 6 12 26 13
45 2 25 -1 35 -14 38 -10 2 -19 -5 -23 -18 -8 -25 -50 -43 -82 -35 -22 5 -23
9 -23 109 0 90 2 105 20 121 30 27 8 49 -43 42 -49 -7 -54 -12 -33 -36 25 -28
20 -229 -7 -245 -15 -9 -21 -6 -37 14 -11 14 -22 39 -26 55 -13 62 -42 150
-63 194 -12 24 -28 24 -45 -1z m37 -99 c8 -29 -2 -49 -23 -49 -27 0 -36 38
-13 55 25 19 30 18 36 -6z"/>
<path d="M11183 4943 c-17 -6 -16 -23 2 -37 19 -15 24 -208 5 -231 -23 -28 -6
-38 74 -42 69 -3 83 -1 113 19 38 25 73 92 73 139 0 45 -36 106 -78 134 -31
20 -48 24 -107 23 -38 0 -76 -3 -82 -5z m178 -64 c18 -18 24 -37 27 -84 5 -78
-17 -111 -84 -121 -25 -3 -48 -4 -51 -1 -7 8 -4 218 4 230 10 16 80 0 104 -24z"/>
<path d="M11498 4942 c-22 -4 -24 -28 -3 -36 12 -4 15 -27 15 -116 0 -89 -3
-112 -15 -116 -24 -9 -17 -33 10 -40 30 -7 202 -1 211 8 3 4 8 25 11 47 5 33
3 41 -10 41 -9 0 -24 -11 -33 -25 -17 -26 -68 -41 -103 -30 -17 5 -21 14 -21
48 0 68 13 78 53 39 18 -18 36 -29 40 -26 4 4 7 31 7 61 0 56 -14 69 -40 38
-7 -9 -23 -15 -34 -13 -16 2 -22 11 -24 40 -3 33 0 38 22 44 46 11 93 -4 100
-31 7 -28 31 -33 40 -10 7 18 -7 57 -26 72 -12 11 -157 14 -200 5z"/>
<path d="M11753 4933 c-4 -9 -1 -19 5 -21 22 -7 82 -94 82 -118 0 -13 -7 -32
-15 -41 -87 -102 -89 -104 -74 -114 37 -23 85 -3 74 31 -4 12 -3 25 1 29 5 3
14 15 20 26 18 32 38 28 58 -9 15 -29 17 -38 6 -51 -10 -12 -8 -16 15 -25 41
-16 85 -12 92 7 4 10 1 19 -6 21 -16 5 -40 30 -61 62 -8 12 -20 28 -26 34 -19
21 -23 44 -8 56 8 7 14 18 14 26 0 7 18 27 40 45 31 25 37 35 29 46 -14 16
-43 17 -70 3 -15 -9 -17 -15 -9 -30 7 -13 7 -21 -1 -25 -5 -4 -14 -18 -20 -32
l-9 -24 -26 28 c-18 20 -23 34 -19 52 7 29 -7 41 -53 41 -21 0 -35 -6 -39 -17z"/>
</g>
</svg>

