<?xml version="1.0" standalone="no"?>
<!DOCTYPE svg PUBLIC "-//W3C//DTD SVG 20010904//EN"
 "http://www.w3.org/TR/2001/REC-SVG-20010904/DTD/svg10.dtd">
<svg version="1.0" xmlns="http://www.w3.org/2000/svg"
 width="100.000000pt" height="100.000000pt" viewBox="0 0 300.000000 300.000000"
 preserveAspectRatio="xMidYMid meet">
<metadata>
Created by potrace 1.10, written by Peter Selinger 2001-2011
</metadata>
<g transform="translate(0.000000,100.000000) scale(0.100000,-0.100000)"
fill="#0000ff" stroke="none">
<path d="M1359 2726 c-2 -3 -54 -10 -114 -16 -61 -6 -119 -15 -130 -20 -11 -5
-36 -12 -55 -15 -33 -7 -59 -17 -210 -87 -86 -40 -223 -131 -285 -190 -27 -25
-59 -55 -70 -65 -50 -44 -225 -279 -225 -300 0 -3 -15 -38 -34 -77 -19 -39
-44 -102 -56 -141 -29 -91 -59 -290 -60 -385 0 -100 40 -356 61 -385 3 -5 10
-24 14 -42 3 -18 15 -50 26 -72 10 -22 19 -45 19 -51 0 -5 4 -10 9 -10 5 0 11
-11 15 -23 14 -56 167 -261 260 -348 68 -63 221 -179 236 -179 6 0 10 -4 10
-10 0 -5 6 -10 13 -10 7 0 43 -15 80 -34 228 -117 534 -154 833 -101 76 13
159 31 184 40 74 26 263 124 300 155 53 45 53 45 85 66 65 42 156 138 258 269
21 28 57 87 57 94 0 5 6 14 14 20 8 7 18 26 21 42 4 16 10 29 14 29 4 0 15 26
26 58 10 31 22 62 25 67 15 22 50 187 64 301 14 108 13 136 0 250 -13 115 -43
252 -63 294 -4 8 -16 41 -26 73 -11 31 -22 57 -26 57 -4 0 -10 13 -14 29 -3
16 -13 35 -21 42 -8 6 -14 15 -14 19 0 21 -149 220 -195 262 -5 5 -39 35 -75
68 -36 33 -70 60 -77 60 -6 0 -13 3 -15 8 -4 9 -75 62 -83 62 -4 0 -18 9 -32
20 -14 11 -34 20 -44 20 -11 0 -19 3 -19 8 0 7 -12 13 -100 49 -19 8 -46 21
-60 28 -14 7 -41 16 -60 19 -19 4 -44 11 -55 15 -46 19 -392 50 -406 37z m376
-111 c55 -14 121 -32 146 -38 25 -7 56 -19 70 -28 13 -8 39 -22 57 -30 17 -8
32 -17 32 -21 0 -5 6 -8 14 -8 7 0 19 -7 26 -15 7 -8 21 -15 31 -15 11 0 19
-4 19 -10 0 -5 5 -10 11 -10 41 0 319 -278 319 -319 0 -6 6 -14 13 -18 14 -9
23 -23 71 -116 20 -37 36 -73 36 -80 0 -6 6 -24 14 -39 8 -15 17 -42 21 -60 4
-18 13 -44 20 -59 16 -30 45 -243 45 -326 0 -32 -4 -85 -10 -118 -5 -33 -11
-79 -14 -102 -4 -44 -37 -154 -62 -210 -8 -17 -14 -36 -14 -42 0 -14 -64 -131
-108 -198 -20 -31 -41 -63 -47 -72 -16 -25 -205 -211 -215 -211 -5 0 -13 -6
-17 -13 -18 -29 -253 -156 -288 -157 -12 0 -25 -4 -30 -8 -9 -8 -77 -30 -195
-64 -64 -18 -418 -18 -485 1 -92 24 -180 52 -197 62 -10 5 -24 9 -33 9 -16 0
-87 31 -95 42 -3 3 -18 10 -33 13 -15 4 -31 13 -35 20 -4 7 -31 25 -59 40 -29
14 -53 30 -53 36 0 5 -9 13 -19 17 -45 17 -213 195 -276 292 -78 120 -156 316
-176 444 -15 91 -15 360 -1 451 21 126 121 378 172 433 11 12 20 24 20 28 0 4
11 22 25 40 14 18 25 36 25 39 0 4 15 21 34 39 19 17 64 59 99 94 36 34 70 62
75 62 6 0 15 7 20 16 9 16 36 34 82 54 13 6 27 14 30 18 3 4 15 13 28 20 87
48 134 72 146 72 7 0 49 12 92 26 131 43 212 53 399 49 145 -3 184 -7 270 -30z"/>
<path d="M1285 2563 c-16 -2 -68 -13 -115 -25 -75 -19 -112 -32 -195 -68 -11
-5 -31 -12 -45 -16 -14 -3 -51 -24 -84 -45 -32 -22 -62 -39 -66 -39 -4 0 -10
-7 -14 -15 -3 -8 -11 -15 -18 -15 -12 0 -176 -162 -226 -223 -70 -86 -192
-349 -192 -415 0 -16 -6 -34 -12 -40 -17 -17 -18 -390 -1 -447 6 -22 19 -67
28 -100 9 -33 30 -88 46 -123 16 -35 29 -65 29 -68 0 -3 29 -49 64 -103 66
-100 233 -281 260 -281 8 0 16 -3 18 -8 4 -11 145 -102 157 -102 6 0 34 -11
63 -24 173 -77 273 -99 463 -99 160 -1 256 16 378 64 56 23 119 47 140 55 110
41 292 192 403 334 44 56 134 202 134 217 0 3 6 19 14 36 30 70 36 89 36 107
0 11 4 20 9 20 5 0 12 30 16 68 3 37 13 104 20 150 13 70 13 94 1 165 -8 45
-17 109 -21 141 -4 33 -10 66 -15 75 -4 9 -13 34 -20 56 -24 80 -129 281 -159
305 -3 3 -18 21 -32 40 -34 45 -70 82 -149 153 -79 70 -87 77 -96 77 -3 0 -23
13 -43 28 -81 62 -293 140 -441 162 -55 8 -278 10 -335 3z m330 -73 c122 -20
184 -35 197 -47 6 -7 18 -13 25 -13 19 0 93 -34 93 -42 0 -5 9 -8 19 -8 11 0
21 -3 23 -7 2 -5 29 -21 61 -38 31 -16 72 -44 89 -62 18 -18 37 -33 43 -33 15
0 105 -91 105 -105 0 -6 16 -25 35 -42 19 -17 35 -38 35 -47 0 -8 6 -19 13
-23 12 -8 77 -131 77 -147 0 -4 7 -14 16 -23 8 -9 13 -22 10 -29 -3 -7 -1 -16
4 -19 6 -4 10 -17 10 -30 0 -13 5 -27 10 -30 6 -3 10 -19 10 -35 0 -16 5 -32
11 -35 6 -4 9 -23 8 -44 -1 -20 2 -44 6 -54 12 -28 -1 -357 -14 -370 -6 -6
-11 -26 -11 -44 0 -18 -4 -33 -9 -33 -5 0 -12 -20 -15 -45 -4 -25 -14 -51 -22
-59 -8 -8 -14 -17 -14 -21 0 -6 -58 -125 -88 -180 -7 -13 -26 -35 -42 -49 -17
-13 -30 -29 -30 -35 0 -14 -78 -89 -110 -106 -14 -7 -35 -25 -47 -39 -13 -14
-27 -26 -33 -26 -5 0 -19 -9 -30 -20 -12 -12 -25 -18 -30 -15 -6 4 -10 2 -10
-4 0 -12 -153 -87 -205 -100 -22 -5 -58 -15 -80 -21 -110 -32 -295 -43 -420
-25 -116 16 -248 50 -305 79 -123 63 -156 82 -163 94 -4 6 -14 12 -22 12 -7 0
-22 10 -32 23 -10 13 -39 37 -65 55 -25 17 -57 46 -70 63 -12 17 -38 45 -55
62 -18 17 -33 35 -33 40 0 5 -9 21 -20 36 -52 74 -140 280 -140 328 0 11 -6
25 -12 31 -19 19 -18 387 1 467 8 33 18 65 21 70 4 6 10 26 14 47 7 37 100
223 117 233 5 4 9 13 9 21 0 15 35 54 49 54 5 0 16 15 25 34 16 34 88 106 106
106 6 0 28 19 50 41 22 23 40 38 40 34 0 -5 8 -2 18 7 9 8 49 30 87 49 39 18
71 37 73 41 2 4 19 10 37 14 19 3 39 12 46 20 6 8 23 14 38 14 14 0 42 5 61
11 91 28 320 38 435 19z"/>
<path d="M930 2044 c0 -4 16 -21 35 -38 l36 -31 -11 -75 c-12 -84 -27 -186
-41 -275 -5 -33 -13 -96 -19 -140 -5 -44 -14 -105 -19 -135 -6 -30 -15 -91
-21 -135 -41 -299 -54 -355 -90 -386 -16 -14 -27 -29 -23 -32 10 -11 221 -8
228 3 3 5 -6 16 -19 25 -24 16 -43 50 -37 69 1 5 8 59 16 120 8 61 19 145 24
186 17 116 51 355 66 460 8 52 17 116 21 143 7 49 27 64 39 27 10 -31 92 -153
130 -193 30 -31 85 -104 85 -111 0 -3 -13 -25 -30 -47 -16 -23 -32 -57 -36
-75 -3 -19 -10 -37 -15 -40 -12 -7 -11 -101 1 -109 6 -3 10 -16 10 -27 0 -70
103 -135 184 -115 91 22 136 88 136 199 0 80 -25 149 -72 203 -21 24 -38 51
-38 60 0 9 22 38 48 64 53 52 151 158 197 214 16 20 37 37 46 37 18 0 22 -17
39 -164 5 -49 15 -116 21 -150 6 -33 17 -113 25 -176 31 -267 59 -472 70 -507
5 -17 -1 -30 -25 -53 -17 -18 -31 -36 -31 -41 0 -5 51 -9 115 -9 63 0 115 3
115 7 0 4 -17 23 -38 43 -38 35 -39 36 -50 150 -7 63 -17 144 -22 180 -6 36
-17 119 -26 185 -16 126 -28 211 -44 323 -39 270 -40 342 -5 342 7 0 18 7 25
15 11 13 -2 15 -109 15 -118 0 -143 -7 -102 -29 45 -25 34 -57 -50 -146 -26
-27 -57 -61 -69 -75 -45 -52 -173 -180 -180 -180 -18 0 -255 256 -287 310 -26
43 -23 61 13 80 13 7 24 19 24 27 0 10 -27 13 -120 13 -66 0 -120 -3 -120 -6z
m497 -606 c49 -51 83 -109 83 -142 0 -31 -47 -113 -71 -127 -37 -19 -80 -7
-113 34 -27 34 -30 45 -30 106 0 63 3 72 38 119 21 29 41 52 45 52 4 0 25 -19
48 -42z"/>
</g>
</svg>
