<svg xmlns="http://www.w3.org/2000/svg" xmlns:xlink="http://www.w3.org/1999/xlink" width="578" height="211" viewBox="0 0 578 211">
  <defs>
    <style>
      .cls-1, .cls-2 {
        stroke: #fff;
        stroke-width: 1px;
        fill: #fefefe;
      }

      .cls-1 {
        stroke-linejoin: round;
        font-size: 40px;
        filter: url(#filter);
        text-anchor: middle;
        font-family: "Bookman Old Style";
      }

      .cls-2, .cls-3 {
        fill-rule: evenodd;
      }

      .cls-2 {
        filter: url(#filter-2);
      }

      .cls-3 {
        fill: #fff;
        filter: url(#filter-3);
      }
    </style>
    <filter id="filter" x="9" y="169" width="553" height="39" filterUnits="userSpaceOnUse">
      <feFlood result="flood"/>
      <feComposite result="composite" operator="in" in2="SourceGraphic"/>
      <feBlend result="blend" in2="SourceGraphic"/>
    </filter>
    <filter id="filter-2" x="143.844" y="35" width="415.125" height="123.438" filterUnits="userSpaceOnUse">
      <feFlood result="flood"/>
      <feComposite result="composite" operator="in" in2="SourceGraphic"/>
      <feBlend result="blend" in2="SourceGraphic"/>
    </filter>
    <filter id="filter-3" x="16.031" y="36" width="121" height="99.969" filterUnits="userSpaceOnUse">
      <feFlood result="flood"/>
      <feComposite result="composite" operator="in" in2="SourceGraphic"/>
      <feBlend result="blend" in2="SourceGraphic"/>
    </filter>
  </defs>
  <g transform="translate(285.088 204.439) scale(0.497 1.145)" style="fill: #fefefe; filter: url(#filter)">
    <text id="NEXT_GENERATION_AMM_PROTOCOL_BY_MUTUALDEX" data-name="NEXT GENERATION AMM PROTOCOL BY MUTUALDEX" class="cls-1" style="stroke: inherit; filter: none; fill: inherit"><tspan x="0">NEXT GENERATION AMM PROTOCOL BY MUTUALDEX</tspan></text>
  </g>
  <use transform="translate(285.088 204.439) scale(0.497 1.145)" xlink:href="#NEXT_GENERATION_AMM_PROTOCOL_BY_MUTUALDEX" style="stroke: #fff; filter: none; fill: #fff"/>
  <g style="fill: #fff; filter: url(#filter-2)">
    <path id="BIGswap" class="cls-2" d="M144.334,135.846h49.859q11.61,0,18.048-7.445t6.437-19.876a25.49,25.49,0,0,0-11.236-22.66q9.316-7.315,9.317-21.236,0-12.754-7-20.167t-20.716-7.413h-44.71v98.8ZM177.9,56.925q8.332,0,8.334,9.582,0,5.309-2.154,7.478t-7.3,2.169h-0.8V56.925H177.9Zm0.281,35.8q8.849,0,8.848,11.136,0,5.632-2.317,7.931t-7.748,2.3h-0.983V92.727h2.2Zm81.976,43.119v-98.8h-31.6v98.8h31.6ZM329.68,38.958a50.635,50.635,0,0,0-17.837-3.464,35.3,35.3,0,0,0-21.231,6.474q-8.966,6.475-13.717,18.258a68.608,68.608,0,0,0-4.752,25.9q0,20.525,10.206,35.932t36.423,15.409q6.788,0,25.983-1.489V82.692H313.107V98.166q-11.424,0-11.423-12.042,0-6.344,3.254-10.2a10.743,10.743,0,0,1,8.637-3.852q8.1,0,17.65,6.345L346.487,48.7A58.352,58.352,0,0,0,329.68,38.958Zm43.4,30.008a19.729,19.729,0,0,0-14.794,5.924q-5.758,5.924-5.758,15.182,0,13.984,15.028,22.919,9.972,5.892,9.971,10.747,0,7.253-6.179,7.251a10.233,10.233,0,0,1-8.123-4.208,15.168,15.168,0,0,1-3.441-9.906q0-1.877.187-4.014l-8.8,2.461q0,22.079,21.442,22.077,20.271,0,20.271-22.077,0-13.854-15.917-22.855-10.393-5.827-10.394-10.877,0-6.862,6.04-6.863,9.831,0,9.831,14.632l8.287-2.007q-1.593-18.386-17.65-18.387h0ZM453.7,70.585l-8.708,38.328-7.21-38.328H426.731l-6.742,38.328-8.333-38.328H393.819l15.5,65.261h10.814l6.367-33.083,6.414,33.083h10.862l15.5-65.261H453.7Zm55.2,56.974a5.158,5.158,0,0,1-2.621,1.36q-2.857,0-2.856-6.086V83.21q0-14.5-19.476-14.5-20.505,0-20.5,15.538a53.481,53.481,0,0,0,.327,5.7l8.474,2.266a33.273,33.273,0,0,1-1.311-8.028q0-9.711,8.334-9.711,7.209,0,7.209,10.035,0,7.64-12.547,13.078-13.67,5.892-13.67,20.459,0,19.164,14.935,19.164,8.006,0,12.265-7.9,2.059,7.575,10.862,7.575a25.766,25.766,0,0,0,12.219-3.367Zm-22.565-12.236q0,12.819-5.337,12.819-3.653,0-3.652-12.949,0-10.1,5.29-14.373a16.754,16.754,0,0,0,3.7-4.208v18.711Zm44.288,42.6V130.472q4.4,7.124,11.236,7.122,16.619,0,16.62-34.508,0-15.6-4.4-24.893T542.32,68.9q-6.882,0-11.7,9.906V68.967a103.059,103.059,0,0,1-17.088,1.683v87.273h17.088Zm10.112-55.16q0,25.314-4.868,25.314-5.432,0-5.431-25.314,0-24.343,5.665-24.344,4.635,0,4.634,24.344h0Z" style="stroke: inherit; filter: none; fill: inherit"/>
  </g>
  <use xlink:href="#BIGswap" style="stroke: #fff; filter: none; fill: #fff"/>
  <path id="Elephant_1" data-name="Elephant 1" class="cls-3" d="M108.278,36c-10.63-.214-14.293,7.208-23.151,9.055H76.873L56.741,47.7l-9.059-.442c-5.427,1.235-9.22,5.137-13.287,7.951C23.338,62.86,13.374,70.024,16.68,92.535c0.534,3.636,1.067,7.671,1.611,10.822,1.109,6.422-2.965,9.979-1.812,15.239l0.805,0.442,1.409-.884c2.469-9.735,1.447-24.273,3.221-34.895l0.2,0.442c2.014,5.479-1.311,11.128-.2,17.005,0.565,2.995,2.2,5.63,1.208,9.277-1.461,5.367-4.838,15.589-1.812,22.527,2.487,5.7,16.523,2.312,19.125-.883-0.162-5.281-4.688-5.209-5.234-9.939,1.742-5.154,3.941-12.549,7.851-15.46-0.471,4.154-1.609,17.292.6,20.1,2.794,3.543,16.377,2.008,18.118-1.325,1.866-2.986-4.3-5.739-4.63-9.056,1.089-2.914,1.235-6.619,1.208-11.042,5-2.68,9.989-6.34,15.5-8.392l1.611,5.742-2.617,9.5q-0.1,5.081-.2,10.16c-0.647,3.351-2.515,5.76-1.611,9.938,3,2.308,16,6.983,17.716,1.767s-4.529-6.374-3.422-11.7l3.825-9.276q0.6-4.2,1.208-8.393h0.2c1.071,6.859,5.341,10.985,7.247,16.343,1.065,3-.6,6.628,0,9.5,2.874,2.3,15.623,3.693,17.515-.442,1.215-4.974-4.408-6.249-5.637-9.5q-0.4-3.644-.8-7.288-1.511-4.417-3.02-8.834-0.4-3.756-.8-7.509-1.41-4.2-2.819-8.393c-1.234-6.387,2.7-14.214,5.436-16.785,1.319,3.654,11.1,5.511,14.293,7.951,1.855,1.419,1.688,4.811,2.416,7.509q2.013,6.734,4.026,13.472l2.214,4.859a7.289,7.289,0,0,1-2.617,7.067h-0.2c-0.244-2.273.7-3.11-.6-5.08-3.427-1.153-5.747.969-7.851,3.093l0.2,1.545c0.756,1.209,2.06,1.122,3.624.884,0.671,7.878,11.061,5.552,13.085.662,2.373-5.731-1.591-12.021-.6-18.993,1.575-11.12-1.3-18.454-3.825-26.061q-1.408-6.514-2.818-13.03c-2.118-5.663-11.765-16.473-16.91-18.552Z"/>
</svg>

