<svg xmlns="http://www.w3.org/2000/svg" xmlns:xlink="http://www.w3.org/1999/xlink" width="236" height="81" viewBox="0 0 236 81">
  <defs>
    <style>
      .cls-1 {
        fill: #fefefe;
        filter: url(#filter);
      }

      .cls-1, .cls-2 {
        stroke: #000;
        stroke-width: 1px;
        fill-rule: evenodd;
      }

      .cls-2 {
        fill: #fff;
        stroke-linejoin: round;
        filter: url(#filter-2);
      }
    </style>
    <filter id="filter" x="61.188" y="15.719" width="158.125" height="55.563" filterUnits="userSpaceOnUse">
      <feFlood result="flood" flood-color="#fff"/>
      <feComposite result="composite" operator="in" in2="SourceGraphic"/>
      <feBlend result="blend" in2="SourceGraphic"/>
    </filter>
    <filter id="filter-2" x="10" y="13" width="52" height="51" filterUnits="userSpaceOnUse">
      <feFlood result="flood" flood-color="#fff"/>
      <feComposite result="composite" operator="in" in2="SourceGraphic"/>
      <feBlend result="blend" in2="SourceGraphic"/>
    </filter>
  </defs>
  <g style="fill: #fefefe; filter: url(#filter)">
    <path id="BIGswap" class="cls-1" d="M61.68,60.934H80.6a8.013,8.013,0,0,0,6.848-3.317q2.442-3.317,2.442-8.856A14.306,14.306,0,0,0,88.8,42.832a11.96,11.96,0,0,0-3.18-4.169Q89.159,35.4,89.16,29.2q0-5.683-2.656-8.986t-7.86-3.3H61.68V60.934ZM74.416,25.769q3.162,0,3.162,4.269a5.221,5.221,0,0,1-.817,3.332,3.456,3.456,0,0,1-2.771.966h-0.3V25.769h0.728Zm0.107,15.953q3.357,0,3.357,4.962A5.474,5.474,0,0,1,77,50.217a3.692,3.692,0,0,1-2.94,1.024H73.688v-9.52h0.835Zm31.1,19.212V16.913H93.636V60.934h11.99ZM132,17.764a16.738,16.738,0,0,0-6.768-1.543,12.054,12.054,0,0,0-8.055,2.885,18.058,18.058,0,0,0-5.2,8.135,35.333,35.333,0,0,0-1.8,11.539,32.037,32.037,0,0,0,3.873,16.01q3.871,6.866,13.819,6.866,2.575,0,9.859-.663V37.25H125.716v6.895q-4.335,0-4.334-5.366a7.618,7.618,0,0,1,1.234-4.544,3.847,3.847,0,0,1,3.277-1.716q3.073,0,6.7,2.827l5.791-13.241A21.635,21.635,0,0,0,132,17.764ZM148.47,31.135a6.959,6.959,0,0,0-5.613,2.64,10.254,10.254,0,0,0-2.185,6.765q0,6.231,5.7,10.212,3.783,2.625,3.784,4.789,0,3.231-2.345,3.231a3.734,3.734,0,0,1-3.082-1.875,7.532,7.532,0,0,1-1.306-4.414q0-.836.072-1.789l-3.34,1.1q0,9.837,8.136,9.837,7.69,0,7.691-9.837,0-6.173-6.04-10.183Q146,39.01,146,36.76q0-3.057,2.292-3.058,3.729,0,3.73,6.52l3.144-.894q-0.6-8.192-6.7-8.193h0Zm30.588,0.721-3.3,17.078-2.735-17.078h-4.193l-2.557,17.078-3.162-17.078h-6.768l5.88,29.078h4.1l2.416-14.741,2.433,14.741h4.121l5.88-29.078h-2.114ZM200,57.242a1.861,1.861,0,0,1-1,.606q-1.085,0-1.084-2.712V37.481q0-6.462-7.389-6.462-7.78,0-7.78,6.923,0,1.183.124,2.539l3.215,1.01a17.187,17.187,0,0,1-.5-3.577q0-4.327,3.162-4.327,2.735,0,2.735,4.471,0,3.4-4.76,5.827-5.187,2.625-5.187,9.116,0,8.539,5.666,8.539,3.037,0,4.654-3.519a3.881,3.881,0,0,0,4.121,3.375,8.69,8.69,0,0,0,4.636-1.5Zm-8.562-5.452q0,5.712-2.025,5.712-1.386,0-1.386-5.77,0-4.5,2.007-6.4a7.239,7.239,0,0,0,1.4-1.875v8.337Zm16.8,18.982V58.54q1.668,3.174,4.263,3.173,6.3,0,6.305-15.376a30.278,30.278,0,0,0-1.669-11.092q-1.669-4.139-4.459-4.14-2.611,0-4.44,4.414V31.135a33.5,33.5,0,0,1-6.484.75V70.771h6.484Zm3.836-24.578q0,11.28-1.847,11.279-2.061,0-2.061-11.279,0-10.846,2.15-10.847,1.758,0,1.758,10.847h0Z" style="stroke: inherit; filter: none; fill: inherit"/>
  </g>
  <use xlink:href="#BIGswap" style="stroke: #000; filter: none; fill: none"/>
  <g style="fill: #fff; filter: url(#filter-2)">
    <path id="Elephant_1" data-name="Elephant 1" class="cls-2" d="M48,16.444c-4.033-.1-5.423,3.212-8.784,4.035H36.084l-7.638,1.181-3.437-.2c-2.059.55-3.5,2.289-5.041,3.543-4.2,3.409-7.976,6.6-6.722,16.631,0.2,1.62.4,3.418,0.611,4.822,0.421,2.862-1.125,4.447-.687,6.79l0.305,0.2,0.535-.394c0.937-4.338.549-10.815,1.222-15.548l0.076,0.2c0.764,2.441-.5,4.958-0.076,7.577,0.214,1.334.835,2.508,0.458,4.133C15.136,51.8,13.855,56.356,15,59.447c0.944,2.541,6.269,1.03,7.256-.394C22.2,56.7,20.48,56.733,20.273,54.626c0.661-2.3,1.5-5.591,2.979-6.888-0.179,1.851-.61,7.7.229,8.955,1.06,1.579,6.214.895,6.874-.59,0.708-1.33-1.632-2.557-1.757-4.035a16.76,16.76,0,0,0,.458-4.92c1.9-1.194,3.79-2.825,5.881-3.739l0.611,2.558L34.557,50.2q-0.038,2.263-.076,4.527c-0.245,1.493-.954,2.566-0.611,4.428,1.139,1.028,6.069,3.111,6.722.787s-1.718-2.84-1.3-5.215l1.451-4.133,0.458-3.74h0.076c0.406,3.056,2.027,4.894,2.75,7.282,0.4,1.334-.226,2.953,0,4.232,1.09,1.026,5.928,1.646,6.645-.2,0.461-2.216-1.672-2.784-2.139-4.231l-0.306-3.247-1.146-3.936-0.306-3.346-1.069-3.74a10.75,10.75,0,0,1,2.062-7.479c0.5,1.628,4.213,2.456,5.423,3.542,0.7,0.632.641,2.144,0.916,3.346l1.528,6,0.84,2.165a3.547,3.547,0,0,1-.993,3.149H55.409c-0.093-1.013.265-1.386-.229-2.263-1.3-.514-2.181.431-2.979,1.378L52.277,50.2a1.1,1.1,0,0,0,1.375.394c0.255,3.51,4.2,2.474,4.965.3,0.9-2.554-.6-5.356-0.229-8.463,0.6-4.955-.493-8.222-1.451-11.612l-1.069-5.806c-0.8-2.523-4.464-7.34-6.416-8.266Z" style="stroke: inherit; filter: none; fill: inherit"/>
  </g>
  <use xlink:href="#Elephant_1" style="stroke: #000; filter: none; fill: none"/>
</svg>
